<?xml version="1.0" standalone="no"?>
<!DOCTYPE svg PUBLIC "-//W3C//DTD SVG 20010904//EN"
 "http://www.w3.org/TR/2001/REC-SVG-20010904/DTD/svg10.dtd">
<svg version="1.0" xmlns="http://www.w3.org/2000/svg"
 width="700.000000pt" height="700.000000pt" viewBox="0 0 700.000000 700.000000"
 preserveAspectRatio="xMidYMid meet">
<metadata>
Created by potrace 1.14, written by Peter Selinger 2001-2017
</metadata>
<g transform="translate(0.000000,700.000000) scale(0.100000,-0.100000)"
fill="#000000" stroke="none">
<path d="M3280 6994 c-19 -2 -84 -9 -145 -14 -639 -62 -1264 -315 -1795 -726
-149 -115 -481 -446 -595 -594 -410 -532 -653 -1132 -727 -1795 -17 -155 -17
-575 0 -730 75 -673 332 -1300 748 -1820 114 -143 339 -372 484 -494 537 -451
1163 -717 1885 -803 142 -17 586 -17 730 0 682 79 1268 318 1802 734 138 107
389 351 512 498 451 538 717 1162 803 1885 16 139 16 595 0 730 -77 629 -275
1158 -620 1649 -234 333 -577 668 -917 896 -460 308 -968 495 -1535 566 -117
15 -552 27 -630 18z m950 -1094 c0 -32 -804 -4100 -825 -4175 -85 -303 -290
-544 -517 -610 -73 -21 -224 -18 -221 5 3 23 944 4763 948 4778 6 16 615 18
615 2z m1075 -22 c-3 -13 -165 -835 -360 -1828 -211 -1071 -366 -1836 -381
-1880 -82 -236 -245 -413 -452 -490 -67 -25 -181 -42 -231 -34 l-38 6 425
2124 425 2124 309 0 308 0 -5 -22z m-1965 -527 c0 -47 -7 -51 -104 -51 l-91
-1 -127 -287 c-70 -158 -130 -295 -134 -304 -6 -17 6 -18 160 -18 91 0 166 -3
166 -7 0 -5 -12 -67 -26 -140 l-27 -132 -24 29 c-13 16 -41 34 -61 40 -48 13
-396 13 -444 0 -20 -6 -48 -24 -62 -41 -21 -25 -26 -41 -26 -89 0 -48 5 -64
26 -89 14 -17 42 -36 62 -42 56 -16 454 -8 475 10 15 11 17 11 17 -1 0 -15
-48 -274 -56 -300 -5 -17 -34 -18 -422 -18 -459 0 -460 0 -506 -63 -20 -27
-21 -44 -24 -285 -3 -283 0 -302 61 -346 27 -20 43 -21 389 -24 l360 -3 -5
-22 c-3 -12 -56 -284 -118 -605 l-113 -583 -286 4 c-157 2 -294 7 -305 11 -17
6 -27 -2 -58 -47 -20 -29 -37 -57 -37 -60 0 -4 150 -7 333 -7 l334 0 -5 -30
-4 -30 -353 0 -353 0 -37 -51 c-20 -28 -39 -57 -42 -65 -4 -12 53 -14 376 -14
l381 0 -6 -27 c-4 -16 -9 -31 -11 -35 -2 -5 -183 -8 -402 -8 l-398 0 -34 -50
c-27 -41 -39 -50 -59 -48 -14 2 -26 10 -28 20 -2 9 68 121 156 249 l159 233
-60 39 c-76 51 -141 138 -167 226 -20 65 -20 89 -18 1072 l3 1005 37 75 c46
93 122 168 215 212 l68 32 338 3 c286 3 338 5 335 17 -2 8 -61 145 -133 305
l-130 290 -103 0 -103 0 -99 -52 c-95 -51 -100 -52 -117 -35 -27 26 -11 42
102 103 l100 54 533 0 c518 0 532 -1 532 -19z"/>
<path d="M2573 5293 c2 -5 57 -128 123 -275 65 -148 121 -268 125 -268 4 0
218 467 246 538 4 9 -49 12 -247 12 -138 0 -249 -3 -247 -7z"/>
<path d="M2275 2542 c-166 -78 -100 -272 92 -272 84 0 173 75 173 145 0 40
-35 93 -78 118 -48 28 -137 32 -187 9z"/>
</g>
</svg>
