<svg viewBox="0 0 206.259 206.259" xmlns="http://www.w3.org/2000/svg">
  <g transform="translate(25.493271)">
    <path
      d="m 21.832458,51.88 c -10.48,0 -19.0000003,8.52 -19.0000003,19 v 78.33 c 0,10.48 8.5200003,19 19.0000003,19 h 21 l 10.11,-52 h -29.18 c -3.03,0 -5.5,-2.47 -5.5,-5.5 V 91.23 c 0,-3.03 2.47,-5.5 5.5,-5.5 h 35.1 l 2.86,-14.71 c -0.91,0.91 -2.16,1.48 -3.55,1.48 h -16.72 c -2.76,0 -5,-2.24 -5,-5 v -1.55 c 0,-2.76 2.24,-5 5,-5 h 16.72 c 2.29,0 4.2,1.55 4.79,3.65 l 2.47,-12.73 h -43.61 z m 6.86,91.58 c 4.28,0 7.76,2.78 7.76,6.19 0,3.41 -3.48,6.19 -7.76,6.19 -4.28,0 -7.76,-2.78 -7.76,-6.19 0,-3.41 3.48,-6.19 7.76,-6.19 z"/>
    <path d="m 20.867859,35.843742 h 3 v 31.64 h -3 z" transform="rotate(-24.12)"/>
    <path
      d="m 18.122458,30.07 c -0.73,0.38 -1.66,0.11 -2.07,-0.61 -0.41,-0.72 -0.15,-1.61 0.59,-2 l 1.49,2.61 z m 5.73,-6.37 1.33,-0.69 1.49,2.61 -1.33,0.69 z m -7.21,3.76 7.21,-3.76 1.49,2.61 -7.21,3.76 z"/>
    <path d="M -28.352177,64.737831 H 3.2878227 v 3 H -28.352177 Z" transform="rotate(-65.87)"/>
    <path
      d="M 40.422458,180.58 H 7.5324577 l 3.5900003,-5.25 h 30.32 l 0.58,-3 h -28.85 l 4.24,-6.19 c 0.47,-0.68 0.29,-1.62 -0.39,-2.08 -0.68,-0.47 -1.62,-0.29 -2.08,0.39 L 0.26245772,185.9 c -0.47,0.68 -0.29,1.62 0.39,2.08 0.26,0.18 0.54999998,0.26 0.84999998,0.26 0.48,0 0.95,-0.23 1.24,-0.65 l 2.74,-4.01 H 39.842458 Z"/>
    <path d="M 123.55,51 H 77.86 v 3 h 44.82 l 0.37,0.2 0.6,-3.07 -0.1,-0.05 z" transform="translate(-52.617542,-28)"/>
    <path
      d="M 128.75246,0 92.252458,182.48 c 3.39,0.52 6.92,0.24 10.380002,-0.82 3.46,-1.06 6.79,-2.89 9.8,-5.37 3.01,-2.48 5.63,-5.58 7.72,-9.1 2.09,-3.53 3.61,-7.42 4.47,-11.45 L 155.27246,0 Z"/>
    <path
      d="m 82.592458,0 -40.93,205.72 c 3.32,0.83 6.81,0.7 10.26,-0.38 3.45,-1.08 6.81,-3.08 9.87,-5.89 3.06,-2.81 5.77,-6.38 7.97,-10.5 2.2,-4.12 3.85,-8.71 4.86,-13.52 l 0.09,-0.29 L 109.13246,0 Z"/>
  </g>
</svg>
